<svg width="276" height="120" viewBox="0 0 276 120" fill="none" xmlns="http://www.w3.org/2000/svg">
<path d="M8.83626 110.46C10.6843 110.46 12.0563 109.466 12.0563 107.688C12.0563 105.42 9.71826 104.902 8.31826 104.034C7.71626 103.67 7.29626 103.25 7.29626 102.592C7.29626 101.794 7.92626 101.262 8.83626 101.262C9.81626 101.262 10.3763 101.85 10.8243 102.55L11.8323 101.794C11.2303 100.73 10.2363 100.1 8.82226 100.1C7.14226 100.1 5.88226 101.08 5.88226 102.746C5.88226 104.944 8.09426 105.476 9.46626 106.33C10.0963 106.708 10.5583 107.156 10.5583 107.87C10.5583 108.71 9.90026 109.298 8.86426 109.298C7.68826 109.298 6.93226 108.57 6.33026 107.618L5.36426 108.36C6.05026 109.704 7.14226 110.46 8.83626 110.46Z" fill="white"/>
<path d="M22.2137 100.31H15.5497V101.5H18.1817V110.25H19.5817V101.5H22.2137V100.31Z" fill="white"/>
<path d="M32.185 110.25H33.697L30.183 100.31H28.657L25.129 110.25H26.543L27.509 107.422H31.233L32.185 110.25ZM27.887 106.344L29.385 101.976L30.869 106.344H27.887Z" fill="white"/>
<path d="M43.4965 110.25H45.1765L42.4885 106.26C43.9585 105.938 44.9385 104.916 44.9385 103.222C44.9385 101.122 43.4125 100.31 41.3265 100.31H38.1905V110.25H39.5905V106.386H40.9625L43.4965 110.25ZM39.5905 101.5H41.2425C42.5445 101.5 43.3845 102.06 43.3845 103.376C43.3845 104.678 42.5725 105.266 41.2425 105.266H39.5905V101.5Z" fill="white"/>
<path d="M54.5106 105.14C55.4486 104.804 56.0926 104.09 56.0926 102.886C56.0926 101.052 54.6506 100.31 52.8726 100.31H49.9046V110.25H53.2926C55.2106 110.25 56.5826 109.326 56.5826 107.464C56.5826 106.036 55.7006 105.378 54.5106 105.14ZM52.6626 101.472C53.7826 101.472 54.5806 101.892 54.5806 103.082C54.5806 104.258 53.7826 104.65 52.6626 104.65H51.3046V101.472H52.6626ZM53.1246 109.088H51.3046V105.756H53.1246C54.1886 105.756 55.0426 106.274 55.0426 107.436C55.0426 108.598 54.2306 109.088 53.1246 109.088Z" fill="white"/>
<path d="M64.9569 110.46C67.3509 110.46 68.7649 109.074 68.7649 106.484V100.31H67.3369V106.4C67.3369 108.22 66.3709 109.158 64.9569 109.158C63.5989 109.158 62.5909 108.22 62.6049 106.4L62.6329 100.31H61.2189V106.484C61.2189 109.074 62.6329 110.46 64.9569 110.46Z" fill="white"/>
<path d="M78.076 110.46C79.812 110.46 80.918 109.886 81.688 109.032L81.114 107.87C80.456 108.598 79.588 109.144 78.23 109.144C76.536 109.144 74.842 107.856 74.842 105.28C74.842 102.704 76.522 101.416 78.202 101.416C79.364 101.416 80.218 101.878 80.792 102.48L81.366 101.234C80.582 100.562 79.588 100.1 78.006 100.1C75.472 100.1 73.386 102.06 73.386 105.28C73.386 108.5 75.528 110.46 78.076 110.46Z" fill="white"/>
<path d="M91.7116 110.25H93.4336L89.6256 104.762L93.1816 100.31H91.5016L87.5816 105.308V100.31H86.1816V110.25H87.5816V107.282L88.6736 105.91L91.7116 110.25Z" fill="white"/>
<path d="M100.252 110.46C102.1 110.46 103.472 109.466 103.472 107.688C103.472 105.42 101.134 104.902 99.7339 104.034C99.1319 103.67 98.7119 103.25 98.7119 102.592C98.7119 101.794 99.3419 101.262 100.252 101.262C101.232 101.262 101.792 101.85 102.24 102.55L103.248 101.794C102.646 100.73 101.652 100.1 100.238 100.1C98.5579 100.1 97.2979 101.08 97.2979 102.746C97.2979 104.944 99.5099 105.476 100.882 106.33C101.512 106.708 101.974 107.156 101.974 107.87C101.974 108.71 101.316 109.298 100.28 109.298C99.1039 109.298 98.3479 108.57 97.7459 107.618L96.7799 108.36C97.4659 109.704 98.5579 110.46 100.252 110.46Z" fill="white"/>
<path d="M124.342 110.46C126.078 110.46 127.184 109.886 127.954 109.032L127.38 107.87C126.722 108.598 125.854 109.144 124.496 109.144C122.802 109.144 121.108 107.856 121.108 105.28C121.108 102.704 122.788 101.416 124.468 101.416C125.63 101.416 126.484 101.878 127.058 102.48L127.632 101.234C126.848 100.562 125.854 100.1 124.272 100.1C121.738 100.1 119.652 102.06 119.652 105.28C119.652 108.5 121.794 110.46 124.342 110.46Z" fill="white"/>
<path d="M136.622 110.46C139.24 110.46 141.592 108.388 141.592 105.28C141.592 102.172 139.24 100.1 136.622 100.1C134.018 100.1 131.666 102.172 131.666 105.28C131.666 108.388 134.018 110.46 136.622 110.46ZM136.622 109.172C134.914 109.172 133.15 107.884 133.15 105.28C133.15 102.676 134.914 101.388 136.622 101.388C138.33 101.388 140.108 102.676 140.108 105.28C140.108 107.884 138.33 109.172 136.622 109.172Z" fill="white"/>
<path d="M151.529 101.5V100.31H146.349V110.25H147.749V105.826H150.927V104.664H147.749V101.5H151.529Z" fill="white"/>
<path d="M161.192 101.5V100.31H156.012V110.25H157.412V105.826H160.59V104.664H157.412V101.5H161.192Z" fill="white"/>
<path d="M170.967 101.5V100.31H165.675V110.25H170.967V109.06H167.075V105.686H170.407V104.524H167.075V101.5H170.967Z" fill="white"/>
<path d="M181.068 101.5V100.31H175.776V110.25H181.068V109.06H177.176V105.686H180.508V104.524H177.176V101.5H181.068Z" fill="white"/>
<path d="M198.09 110.25H199.602L196.088 100.31H194.562L191.034 110.25H192.448L193.414 107.422H197.138L198.09 110.25ZM193.792 106.344L195.29 101.976L196.774 106.344H193.792Z" fill="white"/>
<path d="M209.182 100.31H202.518V101.5H205.15V110.25H206.55V101.5H209.182V100.31Z" fill="white"/>
<path d="M226.197 100.31V104.538H221.227V100.31H219.827V110.25H221.227V105.728H226.197V110.25H227.597V100.31H226.197Z" fill="white"/>
<path d="M237.316 110.46C239.934 110.46 242.286 108.388 242.286 105.28C242.286 102.172 239.934 100.1 237.316 100.1C234.712 100.1 232.36 102.172 232.36 105.28C232.36 108.388 234.712 110.46 237.316 110.46ZM237.316 109.172C235.608 109.172 233.844 107.884 233.844 105.28C233.844 102.676 235.608 101.388 237.316 101.388C239.024 101.388 240.802 102.676 240.802 105.28C240.802 107.884 239.024 109.172 237.316 109.172Z" fill="white"/>
<path d="M257.953 110.25L256.721 100.31H255.335L252.255 107.996L249.147 100.31H247.775L246.543 110.25H247.887L248.783 102.76L251.765 110.25H252.689L255.587 102.802L256.539 110.25H257.953Z" fill="white"/>
<path d="M268.368 101.5V100.31H263.076V110.25H268.368V109.06H264.476V105.686H267.808V104.524H264.476V101.5H268.368Z" fill="white"/>
<path d="M110.16 105.4C112.02 105.4 113.85 104.04 113.85 101.7C113.85 99.36 112.02 98 110.16 98C108.31 98 106.48 99.36 106.48 101.7C106.48 104.04 108.31 105.4 110.16 105.4ZM110.16 104.87C108.65 104.87 107.07 103.82 107.07 101.7C107.07 99.58 108.65 98.53 110.16 98.53C111.67 98.53 113.26 99.58 113.26 101.7C113.26 103.82 111.67 104.87 110.16 104.87ZM108.93 103.79H109.45V102.13H110.06L111.16 103.79H111.79L110.65 102.09C111.28 101.96 111.7 101.55 111.7 100.82C111.7 99.93 111.05 99.6 110.19 99.6H108.93V103.79ZM110.18 101.7H109.45V100.04H110.18C110.74 100.04 111.12 100.29 111.12 100.86C111.12 101.44 110.75 101.71 110.18 101.7Z" fill="white"/>
<path d="M172.303 70.8788C175.295 70.8788 177.788 73.2474 177.788 76.3016C177.788 79.4182 175.295 81.7867 172.303 81.7867C169.311 81.7867 166.88 79.4182 166.88 76.3016C166.818 73.2474 169.311 70.8788 172.303 70.8788ZM172.303 80.9764C174.796 80.9764 176.791 78.9818 176.791 76.3016C176.791 73.6837 174.796 71.6268 172.303 71.6268C169.81 71.6268 167.815 73.6214 167.815 76.3016C167.815 78.9818 169.81 80.9764 172.303 80.9764ZM170.246 73.1227H172.677C174.173 73.1227 174.921 73.746 174.921 74.9303C174.921 76.1146 174.173 76.5509 173.238 76.6756L175.045 79.4805H173.986L172.241 76.7379H171.181V79.4805H170.184V73.1227H170.246ZM171.181 75.9899H172.178C173.051 75.9899 173.861 75.9276 173.861 74.9303C173.861 74.0577 173.113 73.933 172.428 73.933H171.181V75.9899V75.9899Z" fill="white"/>
<path d="M175.364 43C175.364 63.0639 159.091 79.3636 138.983 79.3636C118.91 79.3291 102.637 63.0639 102.637 43C102.637 22.9361 118.91 6.63635 139.018 6.63635C159.091 6.63635 175.364 22.9016 175.364 43Z" fill="white"/>
<path d="M142.623 22.349C142.313 22.28 140.76 22.0382 138.966 22.0382C137.172 22.0382 135.62 22.28 135.309 22.349C135.137 22.3836 135.068 22.2109 135.206 22.1073C135.344 22.0037 138.966 19.241 138.966 19.241C138.966 19.241 142.589 22.0037 142.727 22.1073C142.865 22.2109 142.796 22.3836 142.623 22.349ZM136.31 40.3409C136.31 40.3409 136.103 40.41 136.068 40.5827C136.827 41.1697 137.345 42.5165 138.932 42.5165C140.519 42.5165 141.036 41.1697 141.795 40.5827C141.761 40.41 141.554 40.3409 141.554 40.3409C141.554 40.3409 140.553 40.5827 138.932 40.5827C137.31 40.5827 136.31 40.3409 136.31 40.3409ZM138.966 38.0963C138.518 38.0963 138.414 37.9236 138.138 37.9236C137.862 37.9236 137.31 38.1653 137.172 38.3725C137.172 38.4761 137.207 38.5797 137.31 38.6488C137.966 38.7524 138.242 39.0977 139.001 39.0977C139.76 39.0977 140.036 38.7524 140.691 38.6488C140.76 38.5797 140.795 38.4761 140.829 38.3725C140.726 38.1653 140.139 37.9236 139.863 37.9236C139.484 37.9236 139.38 38.0963 138.966 38.0963ZM175.226 44.9684C175.192 45.8317 175.088 46.6951 174.985 47.5584C170.879 48.2491 169.395 44.5885 165.186 44.7612C165.428 45.6591 165.635 46.5569 165.807 47.4893C169.292 47.4893 170.672 50.7355 174.536 50.252C174.329 51.2535 174.088 52.2204 173.812 53.1873C170.741 53.4981 169.672 50.4592 166.152 50.5283C166.187 51.0463 166.187 51.5297 166.187 52.0477C166.187 52.324 166.187 52.6003 166.187 52.9111C169.188 52.8765 170.189 55.6737 173.053 55.5356C172.708 56.5025 172.294 57.4695 171.845 58.4019C169.775 58.2983 169.085 55.6392 165.945 55.8464C165.842 56.5371 165.738 57.1932 165.6 57.8493C168.326 57.6421 168.912 60.1631 170.879 60.3703C170.396 61.2681 169.844 62.166 169.292 63.0293C168.119 62.4077 167.118 60.5429 164.945 60.4048C165.186 59.7141 165.359 59.0235 165.531 58.2983C163.599 58.2983 161.357 57.5385 159.494 55.8464C160.08 52.3931 154.733 48.8707 154.733 46.3497C154.733 43.6216 156.113 42.1021 156.113 38.4071C156.113 35.6444 154.767 32.6745 152.766 30.637C152.387 30.2572 151.973 29.9118 151.524 29.6356C153.353 31.9148 154.802 34.6429 154.802 37.7509C154.802 41.2388 153.18 43.0691 153.18 46.2807C153.18 49.4923 157.872 52.2895 157.872 55.6047C157.872 56.9169 157.458 58.1947 156.078 60.6811C158.183 62.7876 160.943 63.9272 162.702 63.9272C163.289 63.9272 163.599 63.7545 163.806 63.3056C163.979 62.9257 164.151 62.5113 164.324 62.1315C166.221 62.2005 167.118 63.9272 168.153 64.6524C167.567 65.4467 166.98 66.1719 166.325 66.8971C165.6 66.1028 164.669 64.7905 163.254 64.4107C163.013 64.8941 162.737 65.3776 162.461 65.8611C163.668 66.1719 164.496 67.4151 165.117 68.2094C164.427 68.9346 163.703 69.5907 162.978 70.2468C162.53 69.5216 161.805 68.6238 160.977 68.1058C160.667 68.5202 160.356 68.9 160.046 69.2799C160.736 69.7633 161.357 70.5922 161.736 71.2828C160.874 71.9735 159.977 72.6296 159.08 73.2512C158.631 69.5561 153.594 67.0352 154.94 62.7531C154.491 63.5128 153.974 64.4452 153.974 65.5848C153.974 68.6928 157.286 71.1447 157.527 74.2182C156.837 74.6326 156.147 75.0124 155.423 75.3923C155.319 72.008 151.8 68.313 151.8 65.5157C151.8 62.4077 155.871 59.2997 155.871 55.6392C155.871 51.9787 151.179 49.4232 151.179 46.2116C151.179 43 153.18 41.1352 153.18 37.0257C153.18 34.0213 151.766 30.9478 149.523 29.014C149.144 28.6686 148.764 28.3924 148.281 28.1506C150.386 30.6716 151.593 32.9162 151.593 36.3696C151.593 40.2373 149.316 42.4129 149.316 46.1771C149.316 49.9757 153.905 52.0823 153.905 55.6047C153.905 59.1271 149.627 62.1315 149.627 65.7575C149.627 69.0727 153.387 72.3534 153.456 76.2902C152.628 76.6355 151.8 76.9808 150.938 77.2916C151.421 73.3203 147.177 69.2453 147.177 65.9992C147.177 62.4768 151.628 59.4379 151.628 55.6047C151.628 51.806 147.108 50.0103 147.108 46.108C147.108 42.2057 149.868 40.0301 149.868 35.7134C149.868 32.3292 148.212 29.3248 145.763 27.4254C145.728 27.3909 145.659 27.3564 145.625 27.3218C145.383 27.1492 145.211 27.3564 145.383 27.5636C147.108 29.7046 148.005 31.8802 148.005 35.0918C148.005 39.0632 144.831 42.2748 144.831 46.108C144.831 50.6319 149.109 51.9096 149.109 55.6392C149.109 59.3343 144.521 62.3041 144.521 66.241C144.521 69.9015 148.868 73.9419 148.109 78.155C147.246 78.3967 146.349 78.5694 145.452 78.742C146.28 73.493 142.002 69.7288 142.002 66.2755C142.002 62.5459 146.729 59.2307 146.729 55.6047C146.729 52.1859 143.313 51.0463 142.865 47.5584C142.796 47.0749 142.416 46.7296 141.899 46.7987C141.209 46.9368 140.312 47.3857 138.932 47.3857C137.552 47.3857 136.655 46.9368 135.965 46.7987C135.447 46.6951 135.068 47.0749 134.999 47.5584C134.55 51.0808 131.134 52.1859 131.134 55.6047C131.134 59.2307 135.861 62.5459 135.861 66.2755C135.861 69.6943 131.617 73.493 132.411 78.742C131.514 78.5694 130.651 78.3967 129.754 78.155C128.995 73.9419 133.342 69.9015 133.342 66.241C133.342 62.3041 128.754 59.3343 128.754 55.6392C128.754 51.9441 133.032 50.6319 133.032 46.108C133.032 42.2748 129.858 39.0632 129.858 35.0918C129.858 31.8802 130.789 29.7046 132.48 27.5636C132.652 27.3564 132.445 27.1492 132.238 27.3218C132.204 27.3564 132.135 27.3909 132.1 27.4254C129.685 29.2902 127.995 32.3292 127.995 35.7134C127.995 40.0301 130.755 42.2057 130.755 46.108C130.755 50.0103 126.235 51.806 126.235 55.6047C126.235 59.4033 130.686 62.4423 130.686 65.9992C130.686 69.2453 126.442 73.3203 126.925 77.2916C126.063 76.9808 125.235 76.67 124.407 76.2902C124.476 72.3534 128.236 69.0727 128.236 65.7575C128.236 62.1315 123.958 59.1271 123.958 55.6047C123.958 52.0823 128.547 49.9412 128.547 46.1771C128.547 42.3784 126.27 40.2373 126.27 36.3696C126.27 32.9162 127.477 30.637 129.582 28.1506C129.133 28.3924 128.719 28.6686 128.34 29.014C126.166 30.9478 124.752 34.0213 124.752 37.0257C124.752 41.1352 126.753 43 126.753 46.2116C126.753 49.4232 122.061 51.9787 122.061 55.6392C122.061 59.2997 126.132 62.4077 126.132 65.5157C126.132 68.313 122.647 72.008 122.509 75.3923C121.785 75.0124 121.095 74.6326 120.405 74.2182C120.681 71.1447 123.958 68.6928 123.958 65.5848C123.958 64.4452 123.441 63.5128 122.992 62.7531C124.338 67.0352 119.301 69.5561 118.852 73.2512C117.921 72.6296 117.058 71.9735 116.196 71.2828C116.575 70.5922 117.196 69.7633 117.886 69.2799C117.576 68.9 117.265 68.4856 116.955 68.1058C116.161 68.5892 115.437 69.5216 114.954 70.2468C114.229 69.5907 113.505 68.9 112.815 68.2094C113.436 67.4151 114.264 66.2064 115.471 65.8611C115.195 65.3776 114.919 64.9287 114.678 64.4107C113.298 64.7905 112.332 66.1028 111.607 66.8971C110.952 66.1719 110.365 65.4121 109.779 64.6524C110.848 63.9617 111.711 62.2351 113.608 62.1315C113.781 62.5459 113.919 62.9257 114.126 63.3056C114.333 63.7545 114.643 63.9272 115.23 63.9272C116.989 63.9272 119.749 62.7876 121.854 60.6811C120.474 58.1947 120.06 56.9169 120.06 55.6047C120.06 52.2895 124.752 49.5268 124.752 46.2807C124.752 43.0691 123.13 41.2388 123.13 37.7509C123.13 34.6084 124.545 31.9148 126.408 29.6356C125.959 29.9118 125.545 30.2572 125.166 30.637C123.165 32.6745 121.819 35.6444 121.819 38.4071C121.819 42.1021 123.199 43.6216 123.199 46.3497C123.199 48.8707 117.852 52.3931 118.473 55.8464C116.61 57.5385 114.367 58.2983 112.435 58.2983C112.608 59.0235 112.815 59.7141 113.022 60.4048C110.814 60.5084 109.813 62.4077 108.675 63.0293C108.088 62.166 107.571 61.2681 107.088 60.3703C109.054 60.1631 109.641 57.6421 112.366 57.8493C112.228 57.1932 112.09 56.5025 112.021 55.8464C108.882 55.6392 108.157 58.2983 106.122 58.4019C105.673 57.4695 105.294 56.5025 104.914 55.5356C107.778 55.6737 108.778 52.8765 111.78 52.9111C111.78 52.6348 111.78 52.3585 111.78 52.0477C111.78 51.5297 111.78 51.0117 111.814 50.5283C108.295 50.4592 107.191 53.4981 104.155 53.1873C103.879 52.2204 103.638 51.2535 103.431 50.252C107.295 50.7355 108.675 47.4893 112.159 47.4893C112.332 46.5569 112.504 45.6591 112.78 44.7612C108.571 44.5885 107.088 48.2491 102.982 47.5584C102.879 46.6951 102.81 45.8317 102.741 44.9684C107.502 45.5209 109.296 41.5841 113.677 42.0676C114.091 41.0316 114.574 40.0301 115.092 39.0632C109.641 38.0963 107.778 42.6547 102.706 41.964C103.189 22.349 119.232 6.63635 138.966 6.63635C158.666 6.63635 174.709 22.349 175.261 41.964C170.189 42.6547 168.326 38.0963 162.875 39.0632C163.427 40.0301 163.875 41.0316 164.289 42.0676C168.636 41.5841 170.431 45.5209 175.226 44.9684ZM123.337 29.7392C120.681 28.6341 117.438 28.9104 114.678 30.6716C114.264 28.0816 112.849 25.8024 110.848 24.421C110.572 24.2138 110.296 24.421 110.296 24.7318C110.71 30.1881 107.536 34.8846 103.638 39.0632C107.674 40.2719 111.09 35.0918 116.299 36.8876C118.197 34.0904 120.577 31.673 123.337 29.7392ZM138.966 26.4585C135.585 26.4585 132.756 28.3578 132.031 30.8442C131.962 31.0169 132.066 31.155 132.273 31.0514C132.894 30.7752 133.584 30.637 134.309 30.637C135.689 30.637 136.896 31.155 137.621 32.0184C137.931 33.0544 137.966 34.5738 137.621 35.4372C137.069 35.299 136.862 34.8846 136.31 34.8846C135.758 34.8846 135.344 35.2645 134.378 35.2645C133.446 35.2645 133.342 34.8156 132.721 34.8156C131.997 34.8156 131.859 35.5753 131.859 36.4041C131.859 40.1683 135.309 45.3483 139.001 45.3483C142.658 45.3483 146.108 40.1683 146.108 36.4041C146.108 35.5753 145.935 34.8501 145.176 34.7465C144.797 35.0228 144.452 35.2645 143.589 35.2645C142.658 35.2645 142.382 34.8846 141.83 34.8846C141.174 34.8846 141.243 36.3005 140.45 36.3696C139.932 35.0918 139.898 33.4688 140.346 32.0184C141.071 31.155 142.278 30.637 143.658 30.637C144.417 30.637 145.107 30.7752 145.694 31.0514C145.901 31.155 146.004 31.0169 145.935 30.8442C145.142 28.3578 142.313 26.4585 138.966 26.4585ZM144.314 31.8457C143.52 31.8457 142.554 32.0874 141.968 32.7436C141.899 32.9162 141.899 33.1925 142.002 33.3652C143.451 32.8472 144.762 32.8472 145.383 33.5378C145.728 33.227 145.832 32.9508 145.832 32.64C145.832 32.191 145.314 31.8457 144.314 31.8457ZM132.549 33.5724C133.239 32.8472 134.757 32.8817 136.31 33.4688C136.379 32.709 134.999 31.8457 133.618 31.8457C132.618 31.8457 132.135 32.191 132.135 32.6745C132.1 32.9853 132.204 33.2616 132.549 33.5724ZM155.768 20.8296C153.111 21.0022 150.8 21.9346 148.937 23.4541C149.73 21.2094 150.731 19.241 152.007 17.3072C148.626 17.6525 145.797 18.8957 143.727 21.0368L142.106 16.7892L145.694 13.6121L140.898 13.2668L138.966 8.77742L137.034 13.2668L132.238 13.6121L135.827 16.7892L134.205 21.0368C132.135 18.9302 129.306 17.687 125.925 17.3072C127.201 19.2065 128.202 21.1749 128.995 23.4541C127.132 21.9346 124.821 21.0022 122.164 20.8296C123.751 22.9016 125.166 25.0772 126.235 27.4254C126.339 27.7017 126.615 27.7708 126.891 27.6326C130.548 25.8369 134.654 24.8009 139.001 24.8009C143.348 24.8009 147.453 25.8369 151.11 27.6326C151.386 27.7708 151.628 27.6672 151.766 27.4254C152.766 25.0772 154.181 22.9016 155.768 20.8296ZM161.564 36.8876C166.773 35.0918 170.224 40.2719 174.26 39.0632C170.362 34.9192 167.187 30.1881 167.601 24.7318C167.636 24.421 167.325 24.2138 167.084 24.421C165.083 25.8024 163.703 28.0816 163.254 30.6716C160.494 28.8758 157.251 28.6341 154.595 29.7392C157.32 31.673 159.701 34.0904 161.564 36.8876Z" fill="#006241"/>
</svg>
