<svg width="74" height="74" viewBox="0 0 74 74" fill="none" xmlns="http://www.w3.org/2000/svg">
<path d="M67.1946 62.2222C69.9372 62.2222 72.2227 64.3934 72.2227 67.1931C72.2227 70.05 69.9372 72.2212 67.1946 72.2212C64.452 72.2212 62.2237 70.05 62.2237 67.1931C62.1666 64.3934 64.452 62.2222 67.1946 62.2222ZM67.1946 71.4784C69.4801 71.4784 71.3085 69.65 71.3085 67.1931C71.3085 64.7934 69.4801 62.9079 67.1946 62.9079C64.9091 62.9079 63.0808 64.7362 63.0808 67.1931C63.0808 69.65 64.9091 71.4784 67.1946 71.4784ZM65.3091 64.2792H67.5374C68.9087 64.2792 69.5944 64.8505 69.5944 65.9361C69.5944 67.0217 68.9087 67.4217 68.0517 67.536L69.7086 70.1071H68.7373L67.1375 67.5931H66.1661V70.1071H65.252V64.2792H65.3091ZM66.1661 66.9075H67.0803C67.8803 66.9075 68.623 66.8503 68.623 65.9361C68.623 65.1362 67.9374 65.0219 67.3089 65.0219H66.1661V66.9075V66.9075Z" fill="#006241"/>
<path d="M69.9997 36.6667C69.9997 55.0586 55.0828 70 36.6505 70C18.2499 69.9684 3.33301 55.0586 3.33301 36.6667C3.33301 18.2748 18.2499 3.33334 36.6822 3.33334C55.0828 3.33334 69.9997 18.2431 69.9997 36.6667Z" fill="white"/>
<path d="M39.9871 17.7366C39.7025 17.6733 38.2794 17.4517 36.6348 17.4517C34.9903 17.4517 33.5672 17.6733 33.2825 17.7366C33.1244 17.7683 33.0612 17.61 33.1877 17.515C33.3142 17.4201 36.6348 14.8876 36.6348 14.8876C36.6348 14.8876 39.9555 17.4201 40.082 17.515C40.2085 17.61 40.1453 17.7683 39.9871 17.7366ZM34.1997 34.2292C34.1997 34.2292 34.0099 34.2925 33.9783 34.4508C34.6741 34.9889 35.1484 36.2235 36.6032 36.2235C38.058 36.2235 38.5324 34.9889 39.2281 34.4508C39.1965 34.2925 39.0067 34.2292 39.0067 34.2292C39.0067 34.2292 38.0896 34.4508 36.6032 34.4508C35.1168 34.4508 34.1997 34.2292 34.1997 34.2292ZM36.6348 32.1716C36.2237 32.1716 36.1288 32.0133 35.8758 32.0133C35.6228 32.0133 35.1168 32.2349 34.9903 32.4248C34.9903 32.5198 35.0219 32.6148 35.1168 32.6781C35.7177 32.773 35.9707 33.0896 36.6665 33.0896C37.3622 33.0896 37.6152 32.773 38.2161 32.6781C38.2794 32.6148 38.311 32.5198 38.3426 32.4248C38.2477 32.2349 37.7101 32.0133 37.4571 32.0133C37.1092 32.0133 37.0143 32.1716 36.6348 32.1716ZM69.8732 38.471C69.8415 39.2624 69.7467 40.0538 69.6518 40.8452C65.8884 41.4783 64.5285 38.1228 60.6702 38.2811C60.8915 39.1042 61.0813 39.9272 61.2394 40.7819C64.4336 40.7819 65.6986 43.7575 69.2407 43.3143C69.0509 44.2324 68.8295 45.1187 68.5765 46.0051C65.7619 46.29 64.7815 43.5043 61.5557 43.5676C61.5873 44.0424 61.5873 44.4856 61.5873 44.9604C61.5873 45.2137 61.5873 45.4669 61.5873 45.7518C64.3387 45.7202 65.2559 48.2843 67.8808 48.1577C67.5645 49.044 67.185 49.9304 66.7739 50.7851C64.8764 50.6901 64.2438 48.2526 61.3659 48.4426C61.2711 49.0757 61.1762 49.6771 61.0497 50.2786C63.5481 50.0886 64.0857 52.3995 65.8884 52.5894C65.4456 53.4125 64.9396 54.2355 64.4336 55.0269C63.3583 54.4571 62.4412 52.7477 60.4488 52.6211C60.6702 51.988 60.8283 51.3549 60.9864 50.6901C59.2154 50.6901 57.1597 49.9937 55.452 48.4426C55.9896 45.277 51.0877 42.0481 51.0877 39.7373C51.0877 37.2365 52.3527 35.8436 52.3527 32.4565C52.3527 29.924 51.1193 27.2017 49.285 25.334C48.9371 24.9858 48.5576 24.6692 48.1465 24.416C49.8226 26.5052 51.1509 29.006 51.1509 31.855C51.1509 35.0522 49.6645 36.73 49.6645 39.674C49.6645 42.6179 53.9656 45.182 53.9656 48.221C53.9656 49.4239 53.5861 50.5951 52.321 52.8743C54.2502 54.8053 56.7802 55.85 58.3931 55.85C58.9308 55.85 59.2154 55.6917 59.4052 55.2802C59.5633 54.932 59.7214 54.5521 59.8795 54.2039C61.6189 54.2672 62.4412 55.85 63.39 56.5147C62.8523 57.2428 62.3147 57.9076 61.7138 58.5723C61.0497 57.8443 60.1958 56.6414 58.8991 56.2931C58.6778 56.7363 58.4248 57.1795 58.1718 57.6227C59.2786 57.9076 60.0377 59.0472 60.6069 59.7753C59.9744 60.44 59.3103 61.0415 58.6461 61.6429C58.235 60.9782 57.5709 60.1551 56.8119 59.6803C56.5272 60.0602 56.2426 60.4084 55.958 60.7566C56.5905 61.1998 57.1597 61.9595 57.5076 62.5926C56.717 63.2257 55.8947 63.8272 55.0725 64.397C54.6613 61.0098 50.044 58.699 51.2774 54.7737C50.8663 55.4701 50.3919 56.3248 50.3919 57.3694C50.3919 60.2184 53.4279 62.466 53.6493 65.2833C53.0168 65.6632 52.3843 66.0114 51.7202 66.3596C51.6253 63.2574 48.3995 59.8702 48.3995 57.3061C48.3995 54.4571 52.1313 51.6081 52.1313 48.2526C52.1313 44.8971 47.8302 42.5546 47.8302 39.6106C47.8302 36.6667 49.6645 34.9573 49.6645 31.1903C49.6645 28.4362 48.3679 25.6189 46.3122 23.8462C45.9643 23.5296 45.6165 23.2764 45.1737 23.0548C47.1029 25.3656 48.2097 27.4232 48.2097 30.5888C48.2097 34.1342 46.1225 36.1285 46.1225 39.579C46.1225 43.0611 50.3287 44.9921 50.3287 48.221C50.3287 51.4498 46.4071 54.2039 46.4071 57.5277C46.4071 60.5666 49.8543 63.5739 49.9175 67.1827C49.1585 67.4992 48.3995 67.8158 47.6089 68.1007C48.0516 64.4603 44.1617 60.7249 44.1617 57.7493C44.1617 54.5204 48.2414 51.7347 48.2414 48.221C48.2414 44.7389 44.0984 43.0928 44.0984 39.5157C44.0984 35.9386 46.6285 33.9443 46.6285 29.9873C46.6285 26.8851 45.1104 24.1311 42.865 22.39C42.8334 22.3584 42.7702 22.3267 42.7385 22.295C42.5172 22.1368 42.359 22.3267 42.5172 22.5166C44.0984 24.4793 44.9207 26.4736 44.9207 29.4175C44.9207 33.0579 42.0112 36.0019 42.0112 39.5157C42.0112 43.6626 45.9327 44.8338 45.9327 48.2526C45.9327 51.6398 41.7265 54.3621 41.7265 57.9709C41.7265 61.3264 45.7113 65.0301 45.0156 68.8921C44.2249 69.1137 43.4027 69.2719 42.5804 69.4302C43.3394 64.6186 39.4179 61.1681 39.4179 58.0025C39.4179 54.5837 43.7506 51.5448 43.7506 48.221C43.7506 45.0871 40.6196 44.0424 40.2085 40.8452C40.1453 40.402 39.7974 40.0855 39.323 40.1488C38.6905 40.2754 37.8682 40.6869 36.6032 40.6869C35.3382 40.6869 34.5159 40.2754 33.8834 40.1488C33.409 40.0538 33.0612 40.402 32.9979 40.8452C32.5868 44.0741 29.4559 45.0871 29.4559 48.221C29.4559 51.5448 33.7885 54.5837 33.7885 58.0025C33.7885 61.1364 29.8986 64.6186 30.626 69.4302C29.8037 69.2719 29.0131 69.1137 28.1908 68.8921C27.4951 65.0301 31.4799 61.3264 31.4799 57.9709C31.4799 54.3621 27.2737 51.6398 27.2737 48.2526C27.2737 44.8655 31.1953 43.6626 31.1953 39.5157C31.1953 36.0019 28.2857 33.0579 28.2857 29.4175C28.2857 26.4736 29.1396 24.4793 30.6892 22.5166C30.8474 22.3267 30.6576 22.1368 30.4679 22.295C30.4362 22.3267 30.373 22.3584 30.3414 22.39C28.1276 24.0994 26.5779 26.8851 26.5779 29.9873C26.5779 33.9443 29.108 35.9386 29.108 39.5157C29.108 43.0928 24.965 44.7389 24.965 48.221C24.965 51.7031 29.0447 54.4888 29.0447 57.7493C29.0447 60.7249 25.1548 64.4603 25.5975 68.1007C24.8069 67.8158 24.0479 67.5309 23.2889 67.1827C23.3521 63.5739 26.7993 60.5666 26.7993 57.5277C26.7993 54.2039 22.8778 51.4498 22.8778 48.221C22.8778 44.9921 27.0839 43.0294 27.0839 39.579C27.0839 36.0969 24.9967 34.1342 24.9967 30.5888C24.9967 27.4232 26.1036 25.334 28.0327 23.0548C27.6216 23.2764 27.2421 23.5296 26.8942 23.8462C24.9018 25.6189 23.6051 28.4362 23.6051 31.1903C23.6051 34.9573 25.4394 36.6667 25.4394 39.6106C25.4394 42.5546 21.1384 44.8971 21.1384 48.2526C21.1384 51.6081 24.8702 54.4571 24.8702 57.3061C24.8702 59.8702 21.676 63.2574 21.5495 66.3596C20.8854 66.0114 20.2528 65.6632 19.6203 65.2833C19.8733 62.466 22.8778 60.2184 22.8778 57.3694C22.8778 56.3248 22.4034 55.4701 21.9922 54.7737C23.2256 58.699 18.6083 61.0098 18.1972 64.397C17.3433 63.8272 16.5527 63.2257 15.762 62.5926C16.1099 61.9595 16.6792 61.1998 17.3117 60.7566C17.0271 60.4084 16.7424 60.0285 16.4578 59.6803C15.7304 60.1235 15.0663 60.9782 14.6235 61.6429C13.9594 61.0415 13.2952 60.4084 12.6627 59.7753C13.232 59.0472 13.991 57.9392 15.0979 57.6227C14.8449 57.1795 14.5919 56.768 14.3705 56.2931C13.1055 56.6414 12.22 57.8443 11.5558 58.5723C10.955 57.9076 10.4173 57.2112 9.8797 56.5147C10.8601 55.8816 11.6507 54.2988 13.3901 54.2039C13.5483 54.5837 13.6748 54.932 13.8645 55.2802C14.0543 55.6917 14.3389 55.85 14.8765 55.85C16.4894 55.85 19.0195 54.8053 20.9486 52.8743C19.6836 50.5951 19.3041 49.4239 19.3041 48.221C19.3041 45.182 23.6051 42.6496 23.6051 39.674C23.6051 36.73 22.1187 35.0522 22.1187 31.855C22.1187 28.9744 23.4154 26.5052 25.1232 24.416C24.712 24.6692 24.3325 24.9858 23.9847 25.334C22.1504 27.2017 20.917 29.924 20.917 32.4565C20.917 35.8436 22.182 37.2365 22.182 39.7373C22.182 42.0481 17.2801 45.277 17.8493 48.4426C16.1415 49.9937 14.0859 50.6901 12.3149 50.6901C12.473 51.3549 12.6627 51.988 12.8525 52.6211C10.8285 52.7161 9.91133 54.4571 8.86769 55.0269C8.33005 54.2355 7.85567 53.4125 7.41292 52.5894C9.21557 52.3995 9.7532 50.0886 12.2516 50.2786C12.1251 49.6771 11.9986 49.044 11.9354 48.4426C9.05744 48.2526 8.39331 50.6901 6.5274 50.7851C6.11627 49.9304 5.76839 49.044 5.42051 48.1577C8.04543 48.2843 8.96256 45.7202 11.714 45.7518C11.714 45.4986 11.714 45.2453 11.714 44.9604C11.714 44.4856 11.714 44.0108 11.7456 43.5676C8.51981 43.5043 7.50779 46.29 4.72475 46.0051C4.47175 45.1187 4.25037 44.2324 4.06062 43.3143C7.60267 43.7575 8.86769 40.7819 12.0619 40.7819C12.22 39.9272 12.3781 39.1042 12.6311 38.2811C8.77281 38.1228 7.41292 41.4783 3.64949 40.8452C3.55461 40.0538 3.49136 39.2624 3.42811 38.471C7.79242 38.9775 9.43694 35.3688 13.4534 35.812C13.8329 34.8623 14.2756 33.9443 14.75 33.0579C9.7532 32.1716 8.04542 36.3501 3.39648 35.717C3.83924 17.7366 18.5451 3.33334 36.6348 3.33334C54.693 3.33334 69.3988 17.7366 69.9048 35.717C65.2559 36.3501 63.5481 32.1716 58.5513 33.0579C59.0573 33.9443 59.4684 34.8623 59.8479 35.812C63.8327 35.3688 65.4772 38.9775 69.8732 38.471ZM22.3085 24.5109C19.8733 23.498 16.9006 23.7512 14.3705 25.3656C13.991 22.9915 12.6944 20.9022 10.8601 19.636C10.6071 19.446 10.3541 19.636 10.3541 19.9209C10.7336 24.9225 7.82405 29.2276 4.25037 33.0579C7.95055 34.1659 11.0815 29.4175 15.8569 31.0636C17.5963 28.4995 19.7785 26.2836 22.3085 24.5109ZM36.6348 21.5037C33.5355 21.5037 30.9422 23.2447 30.2781 25.5239C30.2149 25.6822 30.3097 25.8088 30.4995 25.7138C31.0688 25.4606 31.7013 25.334 32.3654 25.334C33.6304 25.334 34.7373 25.8088 35.4014 26.6002C35.6861 27.5499 35.7177 28.9427 35.4014 29.7341C34.8954 29.6075 34.7057 29.2276 34.1997 29.2276C33.6937 29.2276 33.3142 29.5758 32.4286 29.5758C31.5748 29.5758 31.4799 29.1643 30.9106 29.1643C30.2465 29.1643 30.12 29.8607 30.12 30.6205C30.12 34.0709 33.2825 38.8193 36.6665 38.8193C40.0188 38.8193 43.1813 34.0709 43.1813 30.6205C43.1813 29.8607 43.0232 29.196 42.3274 29.101C41.9795 29.3542 41.6633 29.5758 40.8726 29.5758C40.0188 29.5758 39.7657 29.2276 39.2597 29.2276C38.6589 29.2276 38.7221 30.5255 37.9947 30.5888C37.5203 29.4175 37.4887 27.9297 37.8998 26.6002C38.564 25.8088 39.6709 25.334 40.9359 25.334C41.6317 25.334 42.2642 25.4606 42.8018 25.7138C42.9915 25.8088 43.0864 25.6822 43.0232 25.5239C42.2958 23.2447 39.7025 21.5037 36.6348 21.5037ZM41.5368 26.4419C40.8094 26.4419 39.9239 26.6635 39.3862 27.265C39.323 27.4232 39.323 27.6765 39.4179 27.8348C40.7461 27.3599 41.9479 27.3599 42.5172 27.993C42.8334 27.7081 42.9283 27.4549 42.9283 27.17C42.9283 26.7585 42.4539 26.4419 41.5368 26.4419ZM30.7525 28.0247C31.385 27.3599 32.7765 27.3916 34.1997 27.9297C34.2629 27.2333 32.9979 26.4419 31.7329 26.4419C30.8157 26.4419 30.373 26.7585 30.373 27.2017C30.3414 27.4866 30.4362 27.7398 30.7525 28.0247ZM52.0364 16.3438C49.6013 16.5021 47.4824 17.3568 45.7746 18.7496C46.502 16.692 47.4191 14.8876 48.5893 13.1149C45.49 13.4315 42.8967 14.5711 40.9991 16.5337L39.5127 12.6401L42.8018 9.72777L38.4059 9.41122L36.6348 5.29599L34.8638 9.41122L30.4679 9.72777L33.7569 12.6401L32.2705 16.5337C30.373 14.6027 27.7797 13.4631 24.6804 13.1149C25.8506 14.856 26.7677 16.6603 27.4951 18.7496C25.7873 17.3568 23.6684 16.5021 21.2332 16.3438C22.688 18.2431 23.9847 20.2374 24.965 22.39C25.0599 22.6433 25.3129 22.7066 25.5659 22.5799C28.9182 20.9338 32.6816 19.9842 36.6665 19.9842C40.6513 19.9842 44.4147 20.9338 47.767 22.5799C48.02 22.7066 48.2414 22.6116 48.3679 22.39C49.285 20.2374 50.5817 18.2431 52.0364 16.3438ZM57.3495 31.0636C62.1249 29.4175 65.2875 34.1659 68.9877 33.0579C65.414 29.2593 62.5044 24.9225 62.884 19.9209C62.9156 19.636 62.6309 19.446 62.4096 19.636C60.5753 20.9022 59.3103 22.9915 58.8991 25.3656C56.3691 23.7195 53.3963 23.498 50.9612 24.5109C53.4596 26.2836 55.6417 28.4995 57.3495 31.0636Z" fill="#006241"/>
</svg>
